<svg width="18" height="14" viewBox="0 0 18 14" fill="none" xmlns="http://www.w3.org/2000/svg">
<path d="M15.6666 0.333496H2.33329C1.41663 0.333496 0.674959 1.0835 0.674959 2.00016L0.666626 12.0002C0.666626 12.9168 1.41663 13.6668 2.33329 13.6668H15.6666C16.5833 13.6668 17.3333 12.9168 17.3333 12.0002V2.00016C17.3333 1.0835 16.5833 0.333496 15.6666 0.333496ZM15.3333 3.87516L9.44163 7.5585C9.17496 7.72516 8.82496 7.72516 8.55829 7.5585L2.66663 3.87516C2.58307 3.82825 2.50989 3.76488 2.45153 3.68887C2.39317 3.61287 2.35084 3.52581 2.32711 3.43297C2.30337 3.34013 2.29871 3.24344 2.31342 3.14875C2.32813 3.05406 2.36191 2.96334 2.41269 2.88208C2.46348 2.80082 2.53023 2.73071 2.6089 2.67599C2.68757 2.62127 2.77652 2.58309 2.87037 2.56374C2.96423 2.5444 3.06103 2.5443 3.15492 2.56345C3.24881 2.5826 3.33785 2.62061 3.41663 2.67516L8.99996 6.16683L14.5833 2.67516C14.6621 2.62061 14.7511 2.5826 14.845 2.56345C14.9389 2.5443 15.0357 2.5444 15.1295 2.56374C15.2234 2.58309 15.3124 2.62127 15.391 2.67599C15.4697 2.73071 15.5364 2.80082 15.5872 2.88208C15.638 2.96334 15.6718 3.05406 15.6865 3.14875C15.7012 3.24344 15.6966 3.34013 15.6728 3.43297C15.6491 3.52581 15.6067 3.61287 15.5484 3.68887C15.49 3.76488 15.4169 3.82825 15.3333 3.87516Z" fill="#BDBDBD"/>
</svg>
